<?xml version="1.0" encoding="UTF-8"?>
<svg width="1200pt" height="1200pt" version="1.1" viewBox="0 0 1200 1200" xmlns="http://www.w3.org/2000/svg">
 <path d="m942 637.2c-26.398-254.4-217.2-277.2-218.4-278.4-19.199-2.3984-38.398-3.6016-56.398-3.6016-220.8 0-279.6 175.2-283.2 187.2-1.1992 8.3984-22.801 128.4-13.199 250.8 3.6016-1.1992 8.3984-1.1992 12-1.1992 27.602 0 51.602 19.199 57.602 45.602 9.6016 42 1.1992 90-1.1992 104.4 109.2 109.2 314.4 180 368.4 196.8l-75.602-406.8c-16.801-1.1992-60-4.8008-124.8-21.602-46.801-13.199-52.801-37.199-52.801-50.398 1.1992-28.801 33.602-56.398 79.199-67.199 10.801-2.3984 22.801-3.6016 34.801-3.6016 60 0 104.4 32.398 106.8 33.602l3.6016 2.3984 13.195 159.6 39.602 15.602 19.199-22.801-26.398-147.6 2.3984-3.6016c20.398-25.199 39.602-38.398 57.602-38.398 21.602 0 38.398 20.398 43.199 55.199 6 44.398-26.398 73.199-38.398 81.602l20.398 405.6c30-28.801 36-78 37.199-84-6-96.004-4.8008-396-4.8008-409.2z"/>
 <path d="m697.2 250.8c51.602 0 88.801 9.6016 96 10.801h36c18-18 43.199-54 70.801-121.2l18-37.199s-79.199-58.801-260.4-40.801c-182.4 18-464.4 180-392.4 567.6l99.602-72 4.8008-20.398c51.594-249.61 228-286.8 327.59-286.8z"/>
 <path d="m790.8 279.6s-39.602-10.801-92.398-10.801c-100.8 0-224.4 36-286.8 192 42-56.398 120-121.2 256.8-121.2 19.199 0 38.398 1.1992 57.602 3.6016 1.1992 0 30 3.6016 67.199 21.602l38.398-85.199z"/>
 <path d="m909.6 644.4c-3.6016-25.199-13.199-39.602-25.199-39.602-10.801 0-25.199 10.801-42 28.801l26.398 148.8-33.602 37.199-60-22.801-13.199-160.8c-10.801-7.1992-48-28.801-93.602-28.801-10.801 0-20.398 1.1992-31.199 3.6016-42 9.6016-64.801 33.602-66 50.398 0 14.398 14.398 26.398 40.801 33.602 78 21.602 127.2 21.602 127.2 21.602h7.1992l1.1992 7.1992 15.602 85.199h7.1992s55.199 21.602 55.199 82.801c0 0 28.801 10.801 55.199 36l-10.801-212.4 4.8008-2.3984c2.4023-1.2031 40.805-25.203 34.805-68.406z"/>
</svg>
