<?xml version="1.0" encoding="UTF-8"?>
<svg width="1200pt" height="1200pt" version="1.1" viewBox="0 0 1200 1200" xmlns="http://www.w3.org/2000/svg">
 <path d="m600 150c-74.477-0.16406-147.81 18.316-213.31 53.758-65.504 35.441-121.09 86.719-161.69 149.15v-102.91h-75v250h250v-75h-130.92c43.004-80.523 113.98-142.53 199.55-174.33 85.566-31.801 179.81-31.199 264.96 1.6992 85.156 32.895 155.33 95.805 197.3 176.87 41.969 81.07 52.828 174.69 30.527 263.21-22.297 88.52-76.211 165.82-151.57 217.34-75.363 51.512-166.97 73.672-257.55 62.301s-173.86-55.488-234.15-124.03c-60.293-68.539-93.422-156.77-93.148-248.06h-75c0 119.35 47.41 233.81 131.8 318.2s198.85 131.8 318.2 131.8 233.81-47.41 318.2-131.8 131.8-198.85 131.8-318.2-47.41-233.81-131.8-318.2-198.85-131.8-318.2-131.8z"/>
</svg>
