<?xml version="1.0" encoding="UTF-8"?>
<svg width="1200pt" height="1200pt" version="1.1" viewBox="0 0 1200 1200" xmlns="http://www.w3.org/2000/svg">
 <path d="m401.16 163.6c5.9219 1.7852 12.242 1.7695 18.16-0.042968 5.9141-1.8086 11.16-5.3359 15.07-10.133 50.07-58.523 5.5195-148.56-39.035-80.398-17.688 25.527-31.145 78.562 5.8047 90.574z"/>
 <path d="m889.04 372.2c2.3711 7.6797 14.188 7.3281 16.078-0.48047 0.054687-0.19141 5.5195-19.352 26.125-39.812 17.707-17.281 35.301-67.062 1.6094-79.777-43.297-13.996-65.875 64.812-43.812 120.07z"/>
 <path d="m707.14 260.16c0.22266 12.91 19.426 12.906 19.645 0-0.21875-12.91-19.426-12.906-19.645 0z"/>
 <path d="m963.71 431.83c0.22266 12.91 19.426 12.91 19.645 0-0.21875-12.906-19.426-12.906-19.645 0z"/>
 <path d="m986.09 359.04c-2.1602 1.0312-53.344 26.043-76.012 93.855-3.0117 9.0078-5.8281 17.039-8.5352 24.238h0.003906c-9 33.816-31.945 62.215-63.121 78.105-4.5273 1.9805-9.8047-0.0625-11.82-4.5742-2.0156-4.5156-0.015625-9.8086 4.4805-11.859 9.8984-4.9727 18.863-11.621 26.496-19.648 9.3242-9.5938 15.422-21.855 17.445-35.078 2.0234-13.227-0.13281-26.75-6.168-38.691-29.441-58.559-75.465-114-44.73-179.75 1.7227-3.2734 1.2812-7.2656-1.1133-10.082s-6.2617-3.8945-9.7695-2.7227c-13.734 4.9531-25.902 13.465-35.273 24.66-9.3672 11.195-15.598 24.68-18.055 39.07-3.5078 19.199 2.5469 52.078-15.387 63.027-41.898 12.422-50.332-48.113-41.168-78.152 3.0039-11.672-13.828-16.609-17.281-5.0391v-0.003906c-2.2383 8.3984-3.5352 17.02-3.8672 25.703l-7.2852 2.4688c-10.668-12.645-13.848-29.992-8.3594-45.598 13.047-36.266 43.328-63.988 48.113-64.477 9.8633-6.4023 0.18359-21.457-9.7383-15.145l0.003906-0.003906c-13.758 9.5391-25.785 21.367-35.551 34.965-1.8477 2.4766-5.1719 3.3203-7.9766 2.0352-2.8008-1.2891-4.3242-4.3633-3.6484-7.375 14.18-63.535 70.77-105.55 122.53-111.32 54.051-2.5703 74.547 5.0703 118.11-36.07 18.137-15.297 50.23-44.305 73.539-29.168 8.3984 6.9023 19.801-5.2617 12.16-13.199v-0.003907c-12.48-12.812-28.34-21.812-45.734-25.961-17.398-4.1445-35.613-3.2656-52.531 2.5352-52.633 23.238-59.953 44.586-118.04 9.6797-82.645-55.199-177.11-0.38281-225.12 66.938-49.391 63.707-82.262 148.23-158.72 190.08v0.003907c4.4023-18.762 4.7305-38.246 0.96094-57.148-0.78125-3.6016-3.6641-6.3711-7.2969-7.0039-3.6328-0.63281-7.2852 1-9.2344 4.125-28.48 46.41-75.059 80.441-111.68 121.95-22.32 25.109-24.352 65.395 1.3867 90.141 8.8984 8.1602-2.5391 21.512-11.762 13.641-17.164-15.52-23.605-34.945-24.793-53.594-0.058593 0.11328-0.12109 0.22266-0.17969 0.33984-4.3672-56.793 36.715-125.2 37.285-126.13 5.9844-10.105-9.0039-19.418-15.359-9.375-2.7578 4.5117-53.414 88.828-37.285 154.74 4.3945 16.723-5.8398 33.633-7.9961 49.535-20.789-37.441-14.336-97.941-5.25-120.75 3.8828-11.152-12.625-17.258-16.898-6.2109-10.559 26.172-16.934 91.762 5.2188 133.04v-0.003906c5.7969 12.309 8.3516 25.895 7.4219 39.469-3.6758 58.816 12.184 114.36 49.703 160.41-13.723 9.668-17.625 26.934-13.457 42.633 3.1953 17.648 18.82 27.359 35.5 31.117-1.6211 32.582 0.96094 57.883 8.1211 78.391-38.355 6.2969-32.16 56.707 2.0898 64.355 17.871 54.48 82.242 121.99 155.18 144.48 7.0078 17.762 26.277 50.668 75.277 65.66v21c-21.496 7.7969-52.996 29.762-52.078 71.133h-0.007812c0.125 4.8789 4.1172 8.7734 9 8.7695h200.4c4.8828 0.003906 8.8711-3.8906 8.9961-8.7695 0.91797-41.367-30.582-63.332-52.078-71.133v-21.039c49.535-15.227 68.641-48.766 75.273-65.605 73.535-22.688 137.58-90.688 155.18-144.5 35.363-8.0586 40.035-59.879 0.28906-64.672h-0.003906c7.5039-25.297 10.805-51.656 9.7734-78.023 16.727-3.7695 32.441-13.441 35.648-31.156 6.6562-22.035-6.7188-46.43-30.133-49.477l-0.003906-0.003906c7.4609-12.621 13.664-25.945 18.527-39.781l0.054687-0.082031c7.4062-20.023 9.1758-46.367 43.137-63.707 56.281-23.871 52.191-88.406 51.992-91.141-1.0781-11.691-18.562-10.535-17.953 1.3008 0.15234 2.2188 3.2266 54.48-41.066 73.273-8.6289 3.8008-16.48 9.1641-23.16 15.82 0.48047-11.938-0.36328-23.777 6.5586-34.035 9.5625-15.398 17.871-35.914 27.875-65.848 20.137-60.254 66.238-83.094 66.699-83.316 4.4844-2.1445 6.3828-7.5156 4.2422-12.004-2.1445-4.4844-7.5156-6.3828-12-4.2422zm-640.32 123.52c4.4688 84.961 113.62 88.309 100.89-4.0078-3.6797-21.32-14.273-40.801-18.051-61.5-11.902-63.184 46.707-122 101.86-151.68-97.609 197.45 85.73 219 89.207 115.5 29.863 19.332 44.281 64.18 26.77 96.961-7.0742 13.891-17.547 26.086-19.285 42.793-2.4414 23.207 15.359 46.559 39.688 52.035 35.785 8.2617 72-20.82 81.887-56.641 30.078 53.18 21.375 117.48-16.559 163.47-70.422 6.5703-237.43 8.0078-315.01 2.4375-46.484-6.2812-61.59-34.062-66.574-44.059-29.316-46.367-30.062-107.14-4.8359-155.3zm-53.059 410 0.88281 0.21484 2.6562 7.1328c-1.2188-2.4141-2.4141-4.8555-3.5391-7.3477zm287.11 140.19c-117.31 8.5078-237.69-38.719-283.48-132.68 0.80859 0.26953 187.8 62.129 370.3 48.281-11.465 68.215-63.172 81.793-86.812 84.402zm90.867-140.01c-178.18 9.375-419.18-4.2969-410.71-41.703 0.23828-10.664 10.629-12.793 21.02-11.621 128.29 17.594 331.42 21.023 471.77 8.4258-10.492 33.879-57.008 42.656-82.082 44.906zm-341.34-84.672c18.07 4.7344 20.75-18.422 2.0312-17.883-17.32-1.8516-14.207-23.414-13.188-34.664 13.129 2.0508 26.973 3.8906 41.121 5.543l0.007812 68.426c-28.473-2.2734-53.211-4.8008-71.48-7.2891-7.9219-18.48-11.082-42.227-9.7891-74.211 7.0156 1.6055 14.504 3.1211 22.363 4.5469-3.293 23.812-1.1016 50.938 28.934 55.531zm70.652-22.273c0.40625 17.207 12.398 31.113 27.887 32.355 6.8672 1.0508 13.996 0.62891 15.121-7.8164 0.19141-2.3789-0.57422-4.7383-2.1211-6.5547s-3.7539-2.9453-6.1328-3.1367c-20.605 0.91016-16.84-20.105-16.348-33.781 12.383 1.0195 24.547 1.9219 36.227 2.7031v65.762c-26.84-1.1875-53.105-2.7266-77.32-4.4766v-67.801c7.7031 0.80469 15.441 1.5547 23.152 2.2578-0.35156 5.4414-0.64844 12.695-0.46484 20.488zm99.297 22.734c6.7461 8.3008 33.414 17.762 34.801 1.0859 0-2.3867-0.94922-4.6758-2.6367-6.3633s-3.9766-2.6367-6.3633-2.6367c-17.617 0.51562-18.406-14.824-16.445-27.938 18.367 0.88672 32.879 1.4219 41.32 1.6992v63.391c-25.117-0.10938-51.324-0.71875-77.32-1.6992l-0.003906-65.348c6.2227 0.375 12.238 0.71875 18 1.0352-1.5859 12.258-1.3789 27.477 8.6484 36.773zm87.43-23.004c0.27734 19.855 15.074 36 32.992 36 7.0703 0.44531 14.238-0.27344 14.754-9-0.48047-8.6914-7.7109-9.4648-14.754-9-15.027-0.67969-15.992-18.699-14.785-30.734 11.934-0.56641 25.594-1.2891 40.355-2.1953v65.395c-25.961 0.99219-52.172 1.625-77.324 1.7578l-0.003906-63.434c4.8008-0.16406 11.211-0.39453 18.918-0.71875-0.13281 3.3711-0.21484 7.4102-0.15234 11.926zm111.54-36.852c-174.38 10.801-108.61 10.773-285.07-0.39062-1.3828-0.49609-2.8711-0.625-4.3203-0.375-33.277-2.9062-67.324-6.6953-96.641-11.586-23.039-3.8398-43.141-8.3633-57.602-13.68-6.2422-2.2148-10.887-7.5156-12.258-14-5.2188-15.227 5.793-31.613 22.484-27.699 34.141 8.3828 117.62 22.445 293.18 22.445 99.062 0 168.8-4.4766 216.91-9.8867-4.5117 44.906-61.574 53.648-76.68 55.172z"/>
 <path d="m1014.2 80.094c0.22266 12.91 19.426 12.906 19.645 0-0.21875-12.91-19.426-12.906-19.645 0z"/>
 <path d="m208.28 290.11c-0.21875-12.91-19.426-12.91-19.645 0 0.22266 12.914 19.426 12.91 19.645 0z"/>
</svg>
