<?xml version="1.0" encoding="UTF-8"?>
<svg width="1200pt" height="1200pt" version="1.1" viewBox="0 0 1200 1200" xmlns="http://www.w3.org/2000/svg">
 <path d="m245.64 305.64 3.6016 1.4414 1.1992-3.6016c5.8789-18.359 10.922-47.039 1.6797-79.199-4.0781-14.16-10.559-27.48-19.199-39.719l-2.7617-3.8398-2.8789 3.7188c-24.602 31.32-29.641 69.961-12.602 96.359 6.9609 10.801 17.641 19.32 30.961 24.84z"/>
 <path d="m200.16 413.04 3.6016 1.3203 0.96094-3.7188c5.0391-18.602 8.6406-47.52-2.1602-79.199-4.8008-13.922-11.879-27-21.121-38.762l-2.8789-3.7188-2.7617 3.8398c-23.039 32.398-26.16 71.398-7.9219 96.84 7.4414 10.441 18.602 18.48 32.16 23.281z"/>
 <path d="m996.72 701.64c72.48-223.92-60.84-414.84-79.801-440.28 0.48047-9.2383-0.35938-35.16-21.238-56.641-21.238-21.961-48.48-23.879-56.281-24h-3.3594s-0.12109 3.3594-0.12109 3.3594c-0.35938 8.1602 0.12109 36.359 23.16 58.922 19.078 18.719 41.879 22.199 52.441 22.801 19.199 25.801 149.88 213.6 78.602 433.68-27.238 84.121-83.398 171.6-161.88 233.04 4.9219-19.922 8.3984-49.801-1.5586-82.801-4.5586-15-11.398-29.16-20.398-41.879l-3-4.1992-2.8789 4.1992c-23.398 34.441-27.121 76.199-9.3594 103.8 7.1992 11.16 18 19.922 31.32 25.32-62.16 47.039-137.88 77.641-223.92 77.641h-0.83984c-188.88-0.48047-334.08-152.16-387.48-309.48h1.6797c1.3203 0.12109 2.6406 0.12109 3.9609 0.12109 12.961 0 24.84-3.2383 34.68-9.3594 26.641-16.559 38.641-53.762 29.762-92.52l-1.0781-4.6797-4.1992 2.2812c-13.078 7.3203-24.602 16.68-34.32 27.719-21.84 24.84-29.52 52.559-32.16 71.641-2.1602-6.7188-4.3203-13.32-6.1211-20.039-7.3203-26.281-11.641-51.961-13.922-76.801l3.2383 0.96094c7.0781 2.1602 14.039 3.1211 20.879 3.1211 6.8398 0 12.84-0.96094 18.84-2.8789 29.879-9.7188 50.281-43.078 50.879-82.801v-4.8008l-4.5586 1.3203c-14.398 4.0781-27.84 10.32-39.84 18.719-27.48 19.199-41.52 44.641-48.602 62.641l-1.0781 2.6406c-3.1211-35.398-1.6797-69.238 2.7617-100.8l3.3594 1.6797c10.32 5.2812 21.121 8.0391 31.441 8.0391 2.5195 0 5.0391-0.12109 7.5586-0.48047 31.078-4.0781 57.359-33 65.398-72l0.96094-4.6797-4.6797 0.35938c-14.879 1.3203-29.281 5.0391-42.719 11.039-30.48 13.801-49.078 36.121-59.281 52.559l-1.9219 3c4.5586-32.641 12.238-63 21.238-90l2.5195 1.6797c11.641 7.5586 24.238 11.641 36.48 11.641h1.5586c31.32-0.83984 60.48-26.879 72.48-64.801l1.4414-4.5586h-4.8008c-14.879-0.35938-29.641 1.9219-43.559 6.4805-31.801 10.441-52.559 30.84-64.441 46.078l-0.83984 1.1992c12.359-36.719 27.121-67.441 39.84-90.359 1.1992-2.1602 2.3984-4.3203 3.6016-6.3594 9.1211-16.078 19.199-31.68 29.762-46.199 10.441 0.23828 32.879-1.6797 52.559-18.719 24-20.762 26.641-48.719 26.879-56.762v-3.3594l-3.3594-0.23828c-7.6797-0.48047-34.199-0.71875-56.52 19.559-21.961 19.922-24.602 45.719-24.84 54.84-10.922 15-21.238 30.961-30.719 47.52-1.1992 2.1602-2.3984 4.3203-3.6016 6.4805-38.039 68.879-95.281 208.08-51.238 366.96 46.68 168.24 199.8 338.88 402 339.36h0.83984c202.44 0 348.36-165.72 398.28-320.04zm-639-502.32c-1.1992 7.5586-4.1992 18.121-11.039 28.441z"/>
 <path d="m330.84 279.36c-33.121 4.8008-57.121 21.238-71.52 34.078l-2.8789 2.5195 2.7617 2.6406c10.559 9.9609 22.801 16.199 35.398 18 2.8789 0.48047 5.8789 0.60156 8.8789 0.60156 28.32 0 57.121-19.801 73.801-51.719l2.1602-4.1992-4.6797-0.96094c-14.641-2.8789-29.52-3.2383-44.039-1.1992z"/>
 <path d="m138.24 488.16c10.441 7.4414 23.52 11.52 37.922 11.641h3.8398l-0.23828-3.7188c-1.3203-19.199-7.0781-47.762-27.602-74.281-9-11.641-19.922-21.719-32.398-29.879l-3.9609-2.6406-1.3203 4.5586c-11.281 38.16-1.8008 75.961 23.762 94.32z"/>
 <path d="m137.52 599.16c6.7188 2.5195 13.922 3.7188 21.48 3.7188 5.8789 0 12-0.71875 18.238-2.2812l3.7188-0.96094-1.1992-3.6016c-6.2383-18.238-19.32-44.281-45.961-64.559-11.641-8.8789-24.84-15.719-39.121-20.398l-4.5586-1.4414v4.8008c-1.1992 39.719 17.879 73.801 47.281 84.84z"/>
 <path d="m166.92 718.08c10.078 0 20.52-2.5195 30.602-7.5586l3.4805-1.6797-1.9219-3.2383c-9.9609-16.559-28.078-39.238-58.441-53.52-13.32-6.2383-27.602-10.199-42.48-11.762l-4.6797-0.48047 0.83984 4.6797c7.3203 39.121 33.121 68.398 64.078 73.078 2.7617 0.48047 5.6406 0.60156 8.5195 0.60156z"/>
 <path d="m300.84 678.36-3.4805 3.2383c-11.039 10.078-20.281 21.719-27.238 34.559-16.078 29.398-17.281 58.441-15.48 77.762l0.35938 3.8398 3.8398-0.71875c14.281-2.5195 26.52-8.5195 35.641-17.52 22.32-22.078 25.801-60.961 8.6406-96.84l-2.0391-4.3203z"/>
 <path d="m205.68 821.4c12.719-0.96094 25.441-6.2383 36.602-15.359l3-2.3984-2.6406-2.7617c-13.32-13.922-36.121-32.16-68.762-39.359-14.398-3.1211-29.16-3.9609-44.039-2.1602l-4.6797 0.60156 1.9219 4.3203c15 34.801 44.398 57.238 74.281 57.238 1.4414 0 2.8789 0 4.4414-0.12109z"/>
 <path d="m311.52 877.2 3.6016-1.1992c13.68-4.5586 25.078-12.238 32.762-22.441 18.961-25.078 16.68-64.078-5.3984-97.078l-2.6406-3.9609-3 3.7188c-9.4805 11.52-16.922 24.359-22.078 38.16-11.641 31.441-8.6406 60.359-4.1992 79.078l0.83984 3.7188z"/>
 <path d="m383.16 937.8 1.3203 3.6016 3.4805-1.5586c13.199-5.8789 23.641-14.762 30.238-25.68 16.199-26.879 10.078-65.398-15.359-96l-3-3.6016-2.6406 3.9609c-8.2812 12.48-14.398 26.039-18 40.199-8.3984 32.398-2.3984 60.961 3.9609 79.078z"/>
 <path d="m295.44 942.36c-14.281 3.2383-28.078 9-40.68 16.922l-4.0781 2.5195 3.6016 3.1211c19.32 17.039 42.359 26.039 63.48 26.039 11.52 0 22.441-2.6406 32.039-8.1602 11.16-6.3594 20.281-16.559 26.52-29.52l1.6797-3.4805-3.6016-1.3203c-18-6.9609-46.32-13.559-78.961-6.1211z"/>
 <path d="m269.16 911.28c12.48-3 24-10.32 33.602-21.121l2.5195-2.8789-3.1211-2.2812c-15.48-11.52-40.801-25.801-74.281-27.48-14.641-0.83984-29.398 0.96094-43.801 5.1602l-4.5586 1.3203 2.5195 3.9609c18.238 28.32 46.078 45.121 72.602 45.121 4.8008 0 9.6016-0.60156 14.281-1.6797z"/>
 <path d="m947.64 304.8 3.6016-1.4414c13.32-5.5195 24-14.16 30.961-24.961 16.922-26.398 11.762-65.16-12.84-96.359l-3-3.7188-2.7617 3.8398c-8.6406 12.238-15 25.559-19.078 39.719-9.2383 32.16-4.0781 60.84 1.9219 79.199l1.1992 3.7188z"/>
 <path d="m990.84 396.84 0.60156 3.8398 3.7188-0.83984c14.039-3.2383 26.039-9.9609 34.68-19.441 21.121-23.281 22.441-62.281 3.3594-97.199l-2.2812-4.1992-3.3594 3.3594c-10.559 10.68-19.078 22.801-25.441 36-14.398 30.238-14.039 59.398-11.281 78.48z"/>
 <path d="m1013.9 489.24 3.8398 0.23828h3.7188c12.961 0 24.961-3.2383 34.801-9.3594 26.641-16.68 38.52-53.879 29.641-92.641l-1.0781-4.6797-4.0781 2.3984c-12.961 7.4414-24.48 16.68-34.199 27.84-22.078 25.199-29.641 53.281-32.16 72.359l-0.48047 3.8398z"/>
 <path d="m1020.2 597.96-1.1992 3.6016 3.7188 0.96094c6.2383 1.5586 12.359 2.3984 18.359 2.3984 7.4414 0 14.762-1.1992 21.359-3.7188 29.398-10.922 48.48-45 47.641-84.719v-4.8008l-4.6797 1.4414c-14.281 4.6797-27.359 11.52-39.121 20.398-26.641 20.281-39.719 46.199-46.078 64.441z"/>
 <path d="m1060.1 652.08c-30.719 13.32-49.68 35.398-60.121 51.602l-2.0391 3.2383 3.3594 1.8008c10.559 5.6406 21.602 8.5195 32.281 8.5195 2.1602 0 4.4414-0.12109 6.6016-0.35938 31.199-3.6016 57.84-32.16 66.48-70.922l1.0781-4.6797-4.6797 0.35938c-14.879 1.0781-29.281 4.5586-42.84 10.441z"/>
 <path d="m983.64 702.72h3.8398s-0.35938-3.9609-0.35938-3.9609c-2.0391-19.199-8.8789-47.52-30.359-73.199-9.3594-11.281-20.641-20.879-33.48-28.68l-4.0781-2.3984-1.1992 4.5586c-9.8398 38.52 1.0781 75.961 27.238 93.359 10.199 6.7188 22.801 10.32 36.602 10.32h1.8008z"/>
 <path d="m1003.6 603.84 3.8398-0.60156-0.96094-3.7188c-4.8008-18.719-15.602-45.719-40.559-68.039-10.922-9.8398-23.52-17.762-37.32-23.52l-4.4414-1.8008-0.48047 4.6797c-4.1992 39.48 12.121 75 40.441 88.441 8.0391 3.7188 17.16 5.6406 26.762 5.6406 4.1992 0 8.3984-0.35938 12.719-1.0781z"/>
 <path d="m940.56 438.72c-13.68-5.3984-28.199-8.3984-43.199-9l-4.8008-0.23828 1.1992 4.5586c9.8398 38.52 37.441 66.121 68.762 68.762 1.5586 0.12109 3.1211 0.23828 4.6797 0.23828 11.281 0 22.922-3.2383 33.84-9.6016l3.3594-1.9219-2.1602-3.1211c-10.922-15.84-30.602-37.32-61.801-49.68z"/>
 <path d="m910.92 357c-14.16-3.9609-28.922-5.5195-43.801-4.6797l-4.8008 0.23828 1.6797 4.4414c13.441 36.961 43.199 61.559 74.281 61.559h1.0781c12.84-0.23828 25.68-4.8008 37.441-13.199l3.1211-2.2812-2.5195-2.8789c-12.48-14.641-34.199-34.078-66.359-43.199z"/>
 <path d="m889.44 335.16c4.0781 0 8.1602-0.35938 12.121-1.1992 12.48-2.6406 24.359-9.4805 34.32-19.922l2.6406-2.7617-3-2.3984c-9-7.3203-18.961-13.559-29.52-18.359-17.641-8.1602-33.602-10.922-43.801-11.762-14.641-1.3203-29.398 0-43.922 3.4805l-4.5586 1.1992 2.3984 4.0781c17.641 29.762 45.961 47.762 73.199 47.762z"/>
 <path d="m1026.1 757.92c-32.762 6.9609-55.68 24.961-69.121 38.762l-2.6406 2.7617 3 2.3984c11.16 9.2383 23.762 14.641 36.48 15.602 1.5586 0.12109 3.2383 0.23828 4.8008 0.23828 29.641 0 59.039-22.199 74.281-56.762l1.9219-4.3203-4.6797-0.60156c-14.879-1.9219-29.641-1.1992-44.039 1.8008z"/>
 <path d="m970.32 854.76c-33.48 1.5586-58.922 15.602-74.398 27.121l-3.1211 2.2812 2.5195 2.8789c9.4805 10.922 21.121 18.238 33.48 21.359 4.8008 1.1992 9.7188 1.8008 14.641 1.8008 26.52 0 54.238-16.68 72.602-44.762l2.6406-3.9609-4.5586-1.3203c-14.398-4.1992-29.16-6.1211-43.801-5.3984z"/>
 <path d="m904.92 934.32c-33-5.5195-60.961 2.7617-78.48 10.68l-3.4805 1.5586 1.9219 3.3594c6.9609 12.602 16.801 22.32 28.199 27.961 8.6406 4.3203 18.238 6.3594 28.199 6.3594 22.32 0 46.559-10.441 66.121-29.762l3.3594-3.3594-4.1992-2.2812c-13.078-7.1992-27.121-12.121-41.641-14.52z"/>
 <path d="m941.88 792.96 3.8398 0.48047 0.23828-3.8398c1.0781-19.32-1.0781-48.238-18.121-77.16-7.4414-12.602-17.039-24-28.441-33.719l-3.6016-3.1211-1.9219 4.3203c-15.961 36.359-11.16 75.238 11.879 96.48 9.3594 8.6406 21.961 14.281 36.238 16.32z"/>
 <path d="m862.92 747.72-3-3.9609-2.7617 4.1992c-22.32 33.961-25.078 74.398-6.7188 100.56 7.4414 10.68 18.602 18.961 32.16 23.879l3.7188 1.3203 0.96094-3.8398c4.6797-19.441 8.0391-49.441-3-82.199-4.8008-14.398-12-27.84-21.238-39.961z"/>
</svg>
