<?xml version="1.0" encoding="UTF-8"?>
<svg width="1200pt" height="1200pt" version="1.1" viewBox="0 0 1200 1200" xmlns="http://www.w3.org/2000/svg">
 <path d="m923.9 608.48c67.453-119.48 68.578-254.9 0-373.78-70.078-121.36-189.98-186.89-323.72-186.89-137.21 0-255.05 68.016-323.72 186.89-68.578 118.88-68.578 254.9 0 373.78l307.36 532.31c8.7656 15.281 30.75 15.188 39.422-0.1875zm-323.95-328.78c75.469 0 136.6 61.172 136.6 136.6 0 75.422-61.078 136.64-136.6 136.64-75.469 0-136.6-61.172-136.6-136.64 0-75.469 61.078-136.6 136.6-136.6z" fill-rule="evenodd"/>
</svg>
