<?xml version="1.0" encoding="UTF-8"?>
<svg width="1200pt" height="1200pt" version="1.1" viewBox="0 0 1200 1200" xmlns="http://www.w3.org/2000/svg">
 <path d="m389.16 360.48c22.32-70.68 121.32-141.96 210.84-81.719 89.52-60.238 188.64 11.039 210.84 81.602 14.398 50.762-30.602 71.762-64.078 80.641-31.199 10.68-59.16 20.52-84.121 29.398 9.3594 73.32 10.559 115.32 4.4414 146.64-27.121 10.199-49.199 14.398-66.961 14.762-17.879-0.48047-39.961-4.5586-66.961-14.762-6.1211-31.32-4.9219-73.441 4.4414-146.64-24.961-8.8789-53.039-18.719-84.121-29.398-33.719-8.8828-78.719-29.883-64.32-80.523-0.48047 1.3203-0.96094 2.5195-1.4414 3.8398 0.48047-1.3203 0.96094-2.6406 1.4414-3.8398zm210.84 605.52c-29.762-17.762-49.801-54.84-78.121-106.32-0.71875 16.559-0.71875 32.16 1.4414 46.441-27.602-30.84-45.602-62.879-34.801-72.238 42-35.879 83.16-48.961 111.48-54.48 28.32 5.5195 69.48 18.602 111.48 54.48 10.922 9.2383-7.1992 41.398-34.801 72.238 2.1602-14.281 2.1602-29.762 1.4414-46.441-28.32 51.48-48.359 88.559-78.121 106.32zm0-823.32c-23.762-103.2-118.08-169.56-318.12-44.762 130.08 57.121-105.24 13.801-168.24 194.16 164.52 2.7617-57.84 8.6406-45.238 235.56 192.36-136.8-81.719 133.68 73.801 313.2 34.922-270.84 55.559 155.76 209.64 178.56-11.641-47.16-16.922-91.559-15.48-133.32 75.598 208.93 181.08 161.53 263.64 283.93 82.559-122.4 188.04-75 263.76-283.92 1.3203 41.762-3.8398 86.16-15.48 133.32 154.08-22.801 174.72-449.4 209.64-178.56 155.52-179.52-118.56-449.88 73.801-313.2 12.48-226.8-209.76-232.8-45.238-235.56-63.125-180.36-298.32-137.04-168.36-194.16-200.04-124.8-294.36-58.32-318.12 44.758zm66.719 626.76c48.359 21.84 96.602 43.078 105.48-13.32 20.16 5.3984 42.719 12.238 67.801 20.52-77.879-61.078-113.88-85.078 4.5586-45.719-74.16-58.078-104.16-32.641-85.199-144.24 4.4414 26.762 10.078 50.281 16.68 70.441 93.961-20.398 100.92-109.56 67.199-172.92-21.719-32.879-47.641-25.559-60.719-17.641-11.879 45-42.359 57.48-91.199 37.441-20.52 75.48-12.48 78.961-17.762 117.6-8.5195 31.801-24.719 48.961-48.84 58.922-7.3203 4.4414-12.121 8.7617-12.121 14.16v33.359c0 10.441 13.32 21.602 30.719 30.84 7.3242 4.0742 15.363 7.5547 23.402 10.555zm176.52-285c-1.3203-2.2812-2.6406-4.5586-3.8398-6.8398 1.3203 2.1602 2.5234 4.4375 3.8398 6.8398zm-15.477-26.762c-5.5195-8.5195-11.641-16.199-19.32-21.238 7.0781 4.6797 13.559 12.48 19.32 21.238zm-7.5625-57.84c-0.48047-12.719-4.3203-26.281-9.3594-39.359 4.8008 13.199 8.7617 26.758 9.3594 39.359zm-6.7188-107.76c54-47.16 38.762 38.398 37.559 76.68 49.32-74.641 40.922-185.76-68.039-115.2 12.48 15.242 22.68 28.082 30.48 38.52zm-389.52 365.16c6.6016-20.16 12.121-43.68 16.68-70.441 18.961 111.6-11.039 86.039-85.199 144.24 134.16-44.52 63.84-0.83984 4.5586 45.719 25.078-8.2812 47.641-15.238 67.801-20.52 9 56.281 57.121 35.16 105.48 13.32 8.0391-3 16.078-6.4805 23.398-10.441 17.398-9.2383 30.719-20.398 30.719-30.84v-33.359c0-5.3984-4.8008-9.6016-12.121-14.16-24.121-9.9609-40.32-27.121-48.84-58.922-5.2812-38.641 2.7617-42.121-17.762-117.6-48.84 20.039-79.199 7.5586-91.199-37.441-13.199-8.0391-39.121-15.238-60.719 17.641-33.719 63.25-26.758 152.53 67.203 172.81zm-67.199-172.8c1.1992-2.2812 2.5195-4.6797 3.8398-6.8398-1.2031 2.2773-2.5234 4.5586-3.8398 6.8398zm24.957-99.723c0.12109-0.83984 0.35938-1.6797 0.60156-2.5195-0.24219 0.83984-0.35937 1.6797-0.60156 2.5195zm3.3594-12.719c0.48047-1.6797 1.0781-3.4805 1.6797-5.1602-0.59766 1.6797-1.0781 3.3594-1.6797 5.1602zm-36.238-3.1211c-1.0781-38.281-16.441-123.96 37.559-76.68 7.9219-10.559 18-23.398 30.359-38.52-108.84-70.559-117.12 40.559-67.918 115.2zm133.32 105.24-15.238 12.602-11.879-23.398c-4.6797-1.8008-9.2383-3.4805-13.922-5.2812-2.7617 39.359 41.281 50.039 57.121 22.68-5.4023-2.1641-10.801-4.4414-16.082-6.6016zm235.68 0c-5.3984 2.1602-10.68 4.4414-16.078 6.6016 15.84 27.359 59.879 16.68 57.121-22.68-4.5586 1.6797-9.2383 3.4805-13.922 5.2812l-11.879 23.398z" fill-rule="evenodd"/>
</svg>
