<?xml version="1.0" encoding="UTF-8"?>
<svg width="1200pt" height="1200pt" version="1.1" viewBox="0 0 1200 1200" xmlns="http://www.w3.org/2000/svg">
 <path d="m313.2 979.2c12.461 7.0156 26.504 10.73 40.801 10.801 15.727 0.003906 31.125-4.4727 44.398-12.898l492-306c24.586-15.273 39.539-42.16 39.539-71.102s-14.953-55.828-39.539-71.102l-492-306c-16.984-10.578-37.191-14.742-56.977-11.746-19.789 2.9961-37.852 12.957-50.945 28.094-13.094 15.133-20.355 34.441-20.477 54.453v612.6c-0.066406 14.922 3.918 29.582 11.523 42.418 7.6094 12.84 18.555 23.371 31.676 30.48zm16.801-685.5c0.046875-4.2266 1.207-8.3672 3.3672-12.004 2.1602-3.6328 5.2422-6.6328 8.9336-8.6953 3.5977-1.9336 7.6133-2.9648 11.699-3 4.5469 0 9.0078 1.2461 12.898 3.6016l492 306.3v-0.003906c6.9336 4.332 11.145 11.93 11.145 20.102s-4.2109 15.77-11.145 20.102l-492 306.3c-3.7266 2.1914-7.9727 3.3438-12.297 3.3438-4.3242 0-8.5703-1.1523-12.301-3.3438-3.6914-2.0586-6.7734-5.0586-8.9336-8.6953-2.1602-3.6328-3.3203-7.7734-3.3672-12.004z"/>
</svg>
