<?xml version="1.0" encoding="UTF-8"?>
<svg width="1200pt" height="1200pt" version="1.1" viewBox="0 0 1200 1200" xmlns="http://www.w3.org/2000/svg">
 <path d="m528.9 890.4c15.273 24.586 42.16 39.539 71.102 39.539s55.828-14.953 71.102-39.539l306-492c10.578-16.984 14.742-37.191 11.746-56.977-2.9961-19.789-12.957-37.852-28.094-50.945-15.133-13.094-34.441-20.355-54.453-20.477h-612.6c-20.012 0.12109-39.32 7.3828-54.453 20.477-15.137 13.094-25.098 31.156-28.094 50.945-2.9961 19.785 1.168 39.992 11.746 56.977zm-255.9-548.1c2.0625-3.6914 5.0625-6.7734 8.6953-8.9336 3.6367-2.1602 7.7773-3.3203 12.004-3.3672h612.6c4.2266 0.046875 8.3672 1.207 12.004 3.3672 3.6328 2.1602 6.6328 5.2422 8.6953 8.9336 4.332 7.625 4.332 16.973 0 24.598l-306.9 492c-4.332 6.9336-11.93 11.145-20.102 11.145s-15.77-4.2109-20.102-11.145l-306.3-492c-4.5234-7.5195-4.75-16.867-0.60156-24.598z"/>
</svg>
