<?xml version="1.0" encoding="UTF-8"?>
<svg width="1200pt" height="1200pt" version="1.1" viewBox="0 0 1200 1200" xmlns="http://www.w3.org/2000/svg">
 <path d="m482.18 329.02 125.45 144.22h-73.09c-6.0273 0-10.91 4.8828-10.91 10.906v326.18h-83.238v-326.29c0-2.8906-1.1484-5.668-3.1953-7.7109-2.043-2.0469-4.8203-3.1953-7.7109-3.1953h-72.766zm326.18 320.62v-326.29h-83.672v326.18c0 2.8945-1.1484 5.668-3.1953 7.7148-2.0469 2.043-4.8203 3.1953-7.7148 3.1953h-72.762l125.45 144.33 125.45-144.22h-72.652c-6.0273 0-10.91-4.8867-10.91-10.91zm249.82-165.82c0.69922 52.703-8.7852 105.04-27.93 154.15v0.87109l-7.8555 17.891-73.309 176.18c-16.047 38.352-20.41 80.594-12.543 121.42l23.02 120h-0.003906c2.3125 12.176-0.93359 24.746-8.8477 34.285-7.9102 9.5352-19.668 15.047-32.059 15.023h-423.6c-11.023 0-21.594-4.3789-29.391-12.176-7.793-7.793-12.172-18.363-12.172-29.387v-21.82c-0.03125-5.2461-2.1328-10.27-5.8555-13.969-3.7188-3.6992-8.7539-5.7773-14-5.7773h-145.2c-13.781 0-27.004-5.4648-36.758-15.203-9.7539-9.7344-15.25-22.941-15.281-36.723v-159.49c0-5.2188-2.0625-10.223-5.7422-13.922s-8.6758-5.793-13.895-5.8242h-33.598c-13.824 0.003906-26.746-6.8633-34.473-18.324-7.6602-11.281-9.2148-25.633-4.1445-38.293 20.727-52.254 70.582-177.71 83.781-211.86 1.4648-3.8555 1.9531-8.0156 1.418-12.109-1.3633-13.227-2.0195-26.52-1.9648-39.816-0.21094-55.645 10.988-110.74 32.902-161.89 21.914-51.148 54.082-97.262 94.516-135.49 78.277-74.668 182.57-115.9 290.74-114.96 108.18 0.94141 211.73 43.992 288.69 120.02 76.961 76.023 121.28 179.04 123.55 287.2zm-512.73 10.91h86.18c4.2812-0.003906 8.1641-2.5156 9.9258-6.418 1.7656-3.9023 1.082-8.4727-1.7461-11.691l-148.91-171.16c-2.0742-2.4219-5.1016-3.8164-8.293-3.8164-3.1484 0.03125-6.1328 1.4219-8.1797 3.8164l-149.89 171.38c-2.8398 3.2305-3.5156 7.832-1.7266 11.742 1.793 3.9102 5.7148 6.4062 10.016 6.3672h85.746v326.29c0 2.8906 1.1484 5.668 3.1953 7.7109 2.0469 2.0469 4.8203 3.1953 7.7148 3.1953h105.05c2.8906 0 5.668-1.1484 7.7109-3.1953 2.0469-2.043 3.1953-4.8203 3.1953-7.7109zm380.4 150.44c-1.7578-3.9102-5.6406-6.4297-9.9297-6.4375h-85.742v-326.29c0-2.8945-1.1523-5.668-3.1953-7.7148-2.0469-2.0469-4.8242-3.1953-7.7148-3.1953h-105.49c-6.0234 0-10.91 4.8828-10.91 10.91v326.18l-85.742-0.003906c-4.2617-0.007813-8.1406 2.4609-9.9297 6.3281-1.832 3.9062-1.1914 8.5234 1.6367 11.781l149.45 172.36c2.0703 2.3125 5.0273 3.6328 8.1289 3.6328 3.1016 0 6.0586-1.3203 8.1289-3.6328l149.56-172.25c2.8164-3.2109 3.5-7.7773 1.7461-11.672z"/>
</svg>
