<?xml version="1.0" encoding="UTF-8"?>
<svg width="1200pt" height="1200pt" version="1.1" viewBox="0 0 1200 1200" xmlns="http://www.w3.org/2000/svg">
 <path d="m1084.9 395.16c-26.52-62.641-64.441-118.92-112.8-167.28s-104.64-86.281-167.28-112.8c-64.801-27.477-133.8-41.398-204.84-41.398s-140.04 13.922-204.84 41.398c-62.641 26.52-118.92 64.441-167.28 112.8s-86.281 104.64-112.8 167.28c-27.477 64.801-41.398 133.8-41.398 204.84s13.922 140.04 41.398 204.84c26.52 62.641 64.441 118.92 112.8 167.28s104.64 86.281 167.28 112.8c64.922 27.48 133.8 41.398 204.84 41.398s140.04-13.922 204.84-41.398c62.641-26.52 118.92-64.441 167.28-112.8s86.281-104.64 112.8-167.28c27.48-64.922 41.398-133.8 41.398-204.84s-13.922-140.04-41.398-204.84zm16.438 148.32c0.60156 5.1602-3.1211 9.8398-8.3984 10.441-0.35938 0-0.71875 0.12109-0.96094 0.12109-4.8008 0-8.8789-3.6016-9.3594-8.5195-0.60156-5.1602 3.1211-9.8398 8.2812-10.441 5.1562-0.48047 9.8398 3.2383 10.438 8.3984zm-9.4805-55.082c1.0781 4.8008-2.0391 9.8398-7.1992 10.922-0.71875 0.23828-1.4414 0.12109-2.0391 0.12109-4.3203 0-8.1602-3-9.2383-7.4414-1.1992-5.1602 2.0391-9.9609 7.0781-11.039 5.1602-1.1992 10.199 1.4375 11.398 7.4375zm-27.719-60.957c5.0391-1.6797 10.32 0.83984 12.121 5.7617 1.6797 4.9219-0.83984 10.32-5.8789 12-0.96094 0.35938-2.0391 0.60156-3.1211 0.60156-3.9609 0-7.5586-2.3984-9-6.3594-1.6797-4.8047 0.95703-10.207 5.8789-12.004zm-22.199-50.762c4.6797-2.2812 10.32-0.35938 12.602 4.4414 2.2812 4.6797 0.35938 10.32-4.4414 12.602-1.3203 0.60156-2.7617 0.96094-4.0781 0.96094-3.4805 0-6.8398-1.9219-8.5195-5.3984-2.2852-4.8047-0.36328-10.324 4.4375-12.605zm-27.84-48.121c4.4414-2.7617 10.32-1.4414 13.078 3 2.7617 4.4414 1.4414 10.32-3 13.078-1.5586 0.96094-3.3594 1.4414-5.0391 1.4414-3.1211 0-6.2383-1.5586-8.0391-4.4414-2.7617-4.4375-1.4414-10.316 3-13.078zm-33.121-44.637c4.0781-3.2383 10.078-2.6406 13.32 1.5586 3.2383 4.0781 2.6406 10.078-1.4414 13.32-1.8008 1.4414-3.8398 2.0391-5.8789 2.0391-2.7617 0-5.5195-1.1992-7.4414-3.4805-3.2383-4.1992-2.6367-10.199 1.4414-13.438zm-37.68-40.684c3.7188-3.7188 9.6016-3.7188 13.441 0 3.7188 3.7188 3.7188 9.6016 0 13.441-1.9219 1.8008-4.3203 2.7617-6.7188 2.7617-2.3984 0-4.8008-0.96094-6.7188-2.7617-3.7227-3.7188-3.7227-9.7188-0.003907-13.441zm-42.121-36.238c3.2383-4.0781 9.2383-4.6797 13.32-1.5586 4.0781 3.2383 4.6797 9.2383 1.4414 13.32-1.8008 2.2812-4.5586 3.6016-7.4414 3.6016-2.0391 0-4.1992-0.71875-5.8789-2.0391-4.082-3.2461-4.6797-9.2461-1.4414-13.324zm-45.84-31.441c2.8789-4.4414 8.6406-5.6406 13.078-2.8789 4.4414 2.7617 5.7617 8.6406 3 13.078-1.8008 2.8789-4.8008 4.1992-8.0391 4.1992-1.6797 0-3.4805-0.35938-5.0391-1.5586h-0.12109c-4.4375-2.3984-5.7578-8.3984-2.8789-12.84zm-49.078-25.797c2.2812-4.6797 7.9219-6.7188 12.719-4.4414 4.6797 2.2812 6.6016 7.9219 4.3203 12.602-1.5586 3.3594-5.0391 5.3984-8.5195 5.3984-1.4414 0-2.7617-0.23828-4.0781-0.96094-4.6836-2.2812-6.7227-7.8008-4.4414-12.598zm-51.602-20.281c1.8008-4.9219 7.0781-7.5586 12-5.7617 5.0391 1.6797 7.5586 7.0781 5.7617 12-1.3203 3.9609-5.0391 6.3594-8.8789 6.3594-1.0781 0-2.1602-0.23828-3.1211-0.60156-4.9219-1.5547-7.5625-7.0781-5.7617-11.996zm-53.641-14.281c1.0781-5.1602 6.2383-8.2812 11.398-7.0781 5.1602 1.1992 8.2812 6.2383 7.0781 11.398-0.96094 4.3203-4.9219 7.4414-9.2383 7.4414-0.71875 0-1.4414-0.12109-2.1602-0.23828-5.0391-1.3242-8.2773-6.3633-7.0781-11.523zm-54.961-8.1602c0.60156-5.1602 5.2812-8.8789 10.441-8.2812 5.1602 0.60156 9 5.2812 8.2812 10.441-0.48047 4.8008-4.5586 8.3984-9.3594 8.3984-0.35938 0-0.71875 0-1.0781-0.12109-5.1641-0.59766-8.8828-5.2773-8.2852-10.438zm-48.957-11.52c5.1602 0 9.4805 4.1992 9.4805 9.3594 0.12109 5.2812-4.1992 9.4805-9.3594 9.4805h-1.0781c-4.6797-0.48047-8.3984-4.5586-8.3984-9.3594-0.003906-5.2812 4.1953-9.4805 9.3555-9.4805zm-53.641 3.1211c5.1602-0.60156 9.8398 3.1211 10.441 8.2812 0.60156 5.2812-3.1211 9.9609-8.2812 10.441-0.35938 0.12109-0.71875 0.12109-1.0781 0.12109-4.6797 0-8.8789-3.6016-9.3594-8.3984-0.60156-5.1641 3.1172-9.8477 8.2773-10.445zm-55.801 9.4805c5.1602-1.1992 10.199 1.6797 11.398 6.8398 1.0781 5.1602-2.0391 9.8398-7.1992 11.039h0.12109c-0.71875 1.1992-1.4414 0.48047-2.1602 0.48047-4.3203 0-8.1602-2.8789-9.2383-7.1992-1.2031-5.1602 2.0391-10.082 7.0781-11.16zm-54.359 15.598c4.9219-1.8008 10.32 0.83984 12 5.7617 1.8008 4.9219-0.83984 10.32-5.7617 12-0.96094 0.35938-2.0391 0.60156-3.1211 0.60156-3.9609 0-7.5586-2.3984-9-6.3594-1.6758-4.9219 0.96094-10.324 5.8828-12.004zm-52.32 21.602c4.6797-2.1602 10.32-0.23828 12.602 4.4414 2.2812 4.6797 0.35938 10.441-4.4414 12.719-1.3203 0.60156-2.7617 0.83984-4.0781 0.83984-3.4805 0-6.9609-1.9219-8.5195-5.2812-2.1641-4.6797-0.24219-10.438 4.4375-12.719zm-49.441 27.48c4.4414-2.8789 10.32-1.4414 13.078 3 2.7617 4.4414 1.4414 10.199-3 13.078-1.5586 0.96094-3.2383 1.4414-5.0391 1.4414-3.1211 0-6.2383-1.5586-8.0391-4.4414-2.7578-4.4375-1.4375-10.32 3-13.078zm-46.078 32.758c4.0781-3.2383 10.078-2.6406 13.199 1.5586 3.2383 4.0781 2.6406 10.078-1.4414 13.32-1.8008 1.4414-3.8398 2.0391-5.8789 2.0391-2.7617 0-5.5195-1.3203-7.4414-3.6016-3.2383-4.0742-2.6367-9.9531 1.5625-13.316zm-42.242 37.801c3.7188-3.7188 9.6016-3.7188 13.441 0 3.7188 3.7188 3.7188 9.6016 0 13.441-1.9219 1.8008-4.3203 2.7617-6.7188 2.7617-2.3984 0-4.8008-0.96094-6.7188-2.7617-3.7227-3.8398-3.7227-9.8398-0.003907-13.441zm-37.68 42.121c3.2383-4.0781 9.2383-4.8008 13.32-1.5586 4.0781 3.2383 4.8008 9.2383 1.5586 13.32-1.9219 2.2812-4.5586 3.4805-7.4414 3.4805-2.0391 0-4.0781-0.60156-5.8789-2.0391-4.1953-3.125-4.7969-9.125-1.5586-13.203zm-32.758 46.078c2.7617-4.4414 8.6406-5.7617 13.078-3 4.4414 2.7617 5.7617 8.6406 3 13.078-1.8008 2.8789-4.9219 4.4414-8.0391 4.4414-1.6797 0-3.4805-0.48047-5.0391-1.4414-4.4414-2.7578-5.8789-8.6367-3-13.078zm-27.48 49.441c2.2812-4.6797 7.9219-6.7188 12.719-4.4414 4.6797 2.2812 6.6016 7.9219 4.3203 12.602-1.5586 3.3594-5.0391 5.3984-8.5195 5.3984-1.4414 0-2.7617-0.35938-4.0781-0.96094-4.6836-2.1562-6.7227-7.918-4.4414-12.598zm-21.602 52.199c1.6797-4.9219 7.0781-7.5586 12-5.7617 4.9219 1.6797 7.5586 7.0781 5.7617 12-1.3203 3.9609-5.0391 6.3594-8.8789 6.3594-1.0781 0-2.0391-0.23828-3.1211-0.60156-4.9219-1.5547-7.4414-7.0742-5.7617-11.996zm-15.598 54.48c1.0781-5.1602 6.2383-8.2812 11.398-7.1992 5.0391 1.1992 8.2812 6.2383 7.0781 11.398-0.96094 4.4414-4.9219 7.4414-9.2383 7.4414-0.71875 0-1.4414-0.12109-2.1602-0.23828-5.1602-1.3203-8.2773-6.3633-7.0781-11.402zm-9.4805 55.68c0.60156-5.1602 5.2812-8.8789 10.441-8.2812 5.1602 0.60156 8.8789 5.2812 8.2812 10.441-0.60156 4.8008-4.6797 8.3984-9.3594 8.3984-0.35938 0-0.71875 0-1.0781-0.12109-5.1641-0.47656-8.8867-5.2773-8.2852-10.438zm-3.1211 59.402c-0.12109-5.2812 4.1992-9.4805 9.3594-9.4805s9.4805 4.1992 9.4805 9.3594v0.12109c0 5.1602-4.1992 9.4805-9.4805 9.4805h-0.96094c-4.6797-0.60156-8.3984-4.5625-8.3984-9.4805zm3.1211 53.758c-0.60156-5.2812 3.2383-9.9609 8.3984-10.441 5.1602-0.60156 9.3594 3.1211 10.559 8.2812v0.12109c0 5.1602-3.2383 9.8398-8.3984 10.441-0.35938 0.12109-0.71875 0.12109-1.0781 0.12109-4.8008-0.12109-9-3.7227-9.4805-8.5234zm18.598 63.121c-4.3203 0-8.0391-3-9.2383-7.3203v-0.12109c-1.1992-5.0391 2.0391-10.199 7.1992-11.281 5.0391-1.1992 10.199 2.0391 11.281 7.0781 1.1992 5.1602-2.0391 10.199-7.0781 11.281-0.72266 0.24219-1.4414 0.36328-2.1641 0.36328zm18.48 52.801c-1.0781 0.35938-2.0391 0.60156-3.1211 0.60156-3.9609 0-7.5586-2.3984-8.8789-6.3594-1.8008-4.9219 0.83984-10.32 5.7617-12 4.9219-1.6797 10.32 0.83984 12 5.7617 1.8008 4.9141-0.83984 10.316-5.7617 11.996zm22.32 51.238c-1.3203 0.60156-2.7617 0.83984-4.1992 0.83984-3.4805 0-6.8398-2.0391-8.5195-5.3984-2.2812-4.6797-0.23828-10.199 4.4414-12.48 4.6797-2.1602 10.32-1.3203 12.602 4.6797h0.12109c2.1562 3.4805 0.23438 10.078-4.4453 12.359zm27.84 47.52c-1.5586 0.96094-3.3594 1.5586-5.0391 1.5586-3.1211 0-6.2383-1.4414-8.0391-4.3203-2.7617-4.4414-1.5586-10.32 3-13.199 4.4414-2.7617 10.199-1.9219 12.961 2.8789h0.12109c2.7578 4.6836 1.3164 10.324-3.0039 13.082zm33.242 44.879c-1.8008 1.4414-3.9609 2.0391-6 2.0391-2.7617 0-5.5195-1.1992-7.4414-3.4805-3.2383-4.0781-2.3984-10.078 1.6797-13.32 4.0781-3.2383 9.8398-2.6406 13.441 1.4414v0.12109c2.3984 3.9609 2.3984 9.9609-1.6797 13.199zm37.559 40.684c-1.9219 1.8008-4.3203 2.7617-6.7188 2.7617-2.5195 0-4.9219-0.96094-6.7188-2.7617-3.7188-3.7188-3.7188-9.7188 0-13.441 3.7188-3.7188 9.6016-3.7188 13.441 0 3.7148 3.7188 3.7148 9.7188-0.003906 13.441zm42.121 36.117c-1.8008 2.3984-4.5586 3.8398-7.4414 3.8398-2.0391 0-4.1992-1.9219-5.8789-1.9219h-0.12109c-4.0781-3.6016-4.6797-9.3594-1.4414-13.559 3.2383-4.0781 9.2383-4.8008 13.32-1.5586 4.082 3.2422 4.8008 9.2422 1.5625 13.199zm45.84 31.32c-1.8008 2.8789-4.8008 4.4414-8.0391 4.4414-1.8008 0-3.4805-0.48047-5.0391-1.4414-4.4414-2.7617-5.7617-8.6406-3-13.078 2.7617-4.4414 8.6406-5.7617 13.078-3 4.4375 2.7578 5.7578 8.6406 3 13.078zm49.078 25.922c-1.6797 3.3594-5.0391 5.3984-8.5195 5.3984-1.4414 0-2.7617-0.35938-4.0781-0.96094-4.6797-2.2812-6.7188-7.9219-4.4414-12.602 2.2812-4.6797 7.9219-6.7188 12.602-4.4414 4.6797 2.2852 6.7188 7.9258 4.4375 12.605zm51.602 20.277c-1.3203 3.9609-5.0391 6.3594-8.8789 6.3594-1.0781 0-2.1602-0.23828-3.1211-0.60156-4.9219-1.6797-7.5586-7.0781-5.7617-12 1.6797-4.9219 7.0781-7.5586 12-5.7617 4.8008 1.6836 7.5625 7.0859 5.7617 12.004zm53.641 14.402c-0.96094 4.4414-4.9219 7.4414-9.2383 7.4414-0.71875 0-1.4414-0.12109-2.0391-0.23828-5.1602-1.1992-8.2812-6.2383-7.1992-11.281 1.1992-5.1602 6.2383-8.2812 11.398-7.0781 5.0391 0.95703 8.1562 5.9961 7.0781 11.156zm54.961 8.1602c-0.48047 4.8008-4.6797 8.3984-9.3594 8.3984-0.35938 0-0.71875-0.12109-1.0781-0.12109-5.1602-0.60156-9-5.2812-8.2812-10.441 0.60156-5.2812 5.2812-9 10.441-8.3984 5.0352 0.60156 8.7539 5.4023 8.2773 10.562zm48.84 11.52h-1.0781c-4.8008-0.48047-8.5195-4.5586-8.3984-9.3594 0-5.1602 4.1992-9.4805 9.3594-9.4805 5.2812 0 9.4805 4.1992 9.4805 9.3594 0.11328 5.1602-4.0859 9.4805-9.3633 9.4805zm53.758-3.1211c-0.35938 0-0.71875 0.12109-1.0781 0.12109-4.8008 0-8.8789-3.6016-9.3594-8.3984-0.60156-5.1602 3.1211-9.8398 8.2812-10.441 5.2812-0.60156 9.9609 3.1211 10.441 8.2812 0.59375 5.1562-3.125 9.8398-8.2852 10.438zm55.68-9.4805c-0.71875 0.12109-1.4414 0.23828-2.0391 0.23828-4.3203 0-8.1602-3-9.2383-7.4414-1.1992-5.0391 2.0391-10.199 7.0781-11.281 5.0391-1.1992 10.199 2.0391 11.281 7.0781 1.3203 5.168-1.9219 10.207-7.082 11.406zm54.48-15.598c-0.96094 0.35938-2.0391 0.48047-3.1211 0.48047-3.9609 0-7.5586-2.3984-9-6.3594-1.6797-5.0391 0.83984-10.32 5.7617-12 4.9219-1.8008 10.32 0.83984 12 5.7617 1.918 5.0352-0.71875 10.316-5.6406 12.117zm52.32-21.723c-1.3203 0.60156-2.7617 0.96094-4.0781 0.96094-3.4805 0-6.9609-1.9219-8.5195-5.3984-2.2812-4.6797-0.23828-10.32 4.4414-12.602s10.441-0.35938 12.719 4.4414c2.0391 4.6797 0.11719 10.32-4.5625 12.598zm49.441-27.359c-1.5586 0.96094-3.2383 1.4414-5.0391 1.4414-3.1211 0-6.2383-1.5586-8.0391-4.4414-2.7617-4.4414-1.4414-10.32 3-13.078 4.4414-2.7617 10.32-1.4414 13.078 3 2.7578 4.4375 1.4375 10.32-3 13.078zm46.078-32.879c-1.8008 1.4414-3.8398 2.0391-5.8789 2.0391-2.7617 0-5.5195-1.1992-7.4414-3.4805-3.2383-4.0781-2.6406-10.078 1.4414-13.32 4.0781-3.2383 10.078-2.6406 13.32 1.4414 3.3594 4.1992 2.6406 10.078-1.4414 13.32zm42.242-37.68c-1.9219 1.8008-4.3203 2.7617-6.7188 2.7617-2.5195 0-4.9219-0.96094-6.7188-2.7617-3.7188-3.7188-3.7188-9.7188 0-13.441 3.7188-3.7188 9.6016-3.7188 13.441 0 3.5938 3.7227 3.5938 9.7227-0.003906 13.441zm37.68-42.121c-1.9219 2.2812-4.5586 3.4805-7.4414 3.4805-2.0391 0-4.1992-0.71875-5.8789-2.0391-4.0781-3.2383-4.6797-9.2383-1.4414-13.199 3.2383-4.0781 9.2383-4.8008 13.199-1.5586 4.082 3.2383 4.8008 9.2383 1.5625 13.316zm32.758-46.199c-1.8008 2.8789-4.9219 4.4414-8.0391 4.4414-1.6797 0-3.2383-0.48047-4.8008-1.4414-4.4414-2.7617-6.3594-8.6406-2.7617-12.961v-0.12109c2.3984-4.4414 8.3984-5.7617 12.84-2.8789 4.4414 2.7617 5.5234 8.6406 2.7617 12.961zm-97.918 60.961c-42.723 42.719-92.52 76.32-148.08 99.719-57.359 24.238-118.44 36.602-181.2 36.602-62.879 0-123.84-12.359-181.2-36.602-55.441-23.398-105.24-57-147.96-99.84-42.84-42.602-76.441-92.398-99.84-147.96-24.238-57.359-36.602-118.44-36.602-181.2 0-62.879 12.359-123.84 36.602-181.2 23.398-55.441 57-105.24 99.84-147.96 42.84-42.719 92.398-76.441 147.96-99.84 57.359-24.238 118.44-36.602 181.2-36.602 62.879 0 123.84 12.359 181.2 36.602 55.441 23.398 105.24 57 147.96 99.84 42.84 42.602 76.441 92.398 99.84 147.96 24.238 57.359 36.602 118.44 36.602 181.2 0 62.879-12.359 123.84-36.602 181.2-23.398 55.562-57 105.36-99.719 148.08zm125.28-110.28c-1.6797 3.3594-5.0391 5.3984-8.5195 5.3984-1.4414 0-2.7617-0.35938-4.0781-0.96094-4.6797-2.2812-6.7188-7.9219-4.4414-12.719 2.2812-4.6797 7.9219-6.6016 12.602-4.3203 4.8008 2.1602 6.7188 7.8008 4.4375 12.602zm21.602-52.32c-1.3203 3.9609-5.0391 6.3594-8.8789 6.3594-1.0781 0-2.1602-0.23828-3.1211-0.60156-4.9219-1.6797-7.5586-7.0781-5.7617-12 1.8008-4.9219 7.0781-7.5586 12-5.7617 4.9219 1.6836 7.5625 7.0859 5.7617 12.004zm15.719-54.359c-0.96094 4.4414-4.9219 7.4414-9.2383 7.4414-0.71875 0-1.4414-0.12109-2.0391-0.23828-5.1602-1.1992-8.2812-6.2383-7.0781-11.398 1.0781-5.0391 6.2383-8.2812 11.281-7.0781 5.0352 1.1914 8.2734 6.2344 7.0742 11.273zm9.4805-55.922c-0.60156 6-4.6797 8.5195-9.4805 8.5195h-0.96094c-5.2812-0.60156-9-5.2812-8.3984-10.441 0.60156-5.2812 5.2812-9 10.441-8.3984 5.1602 0.60156 9 5.5234 8.3984 10.32zm-6.3594-49.68h-0.96094c-4.8008-0.48047-8.5195-4.5586-8.3984-9.3594-0.12109-5.1602 4.1992-9.4805 9.3594-9.4805s9.4805 4.1992 9.4805 9.4805c0 5.0391-4.1992 9.2422-9.4805 9.3594z"/>
 <path d="m600 558.72-342.36 342.36-6-6c8.1602 9.6016 16.68 18.84 25.559 27.84 41.879 41.879 90.719 74.879 145.08 97.801 56.281 23.762 116.04 35.879 177.72 35.879 61.68 0 121.44-12.121 177.72-35.879 54.359-23.039 103.2-55.922 145.08-97.801 9-9 17.52-18.238 25.559-27.84l-6 6z"/>
 <path d="m1020.6 422.28c-23.039-54.359-55.922-103.2-97.801-145.08-41.879-41.879-90.719-74.879-145.08-97.801-56.281-23.762-116.04-35.879-177.72-35.879-61.68 0-121.44 12.121-177.72 35.879-54.359 23.039-103.2 55.922-145.08 97.801-41.879 41.879-74.879 90.719-97.801 145.08-23.762 56.281-35.879 116.04-35.879 177.72s12.121 121.44 35.879 177.72c10.078 24 22.199 46.801 36.121 68.52l384.47-384.6 384.48 384.48c13.922-21.719 25.922-44.52 36.121-68.52 23.762-56.281 35.879-116.04 35.879-177.72 0-61.684-12-121.32-35.879-177.6z"/>
 <path d="m600 45c-306.48 0-555 248.52-555 555s248.52 555 555 555 555-248.52 555-555-248.52-555-555-555zm378.6 933.6c-49.199 49.199-106.44 87.84-170.16 114.72-66 27.961-136.2 42.121-208.44 42.121-72.238 0-142.44-14.16-208.44-42.121-63.719-27-121.08-65.52-170.16-114.72-49.199-49.199-87.84-106.44-114.72-170.16-27.961-66-42.121-136.2-42.121-208.44 0-72.238 14.16-142.44 42.121-208.44 27-63.719 65.52-121.08 114.72-170.16 49.199-49.199 106.44-87.84 170.16-114.72 66-27.961 136.2-42.121 208.44-42.121 72.238 0 142.44 14.16 208.44 42.121 63.719 27 121.08 65.52 170.16 114.72 49.199 49.199 87.84 106.44 114.72 170.16 27.961 66 42.121 136.2 42.121 208.44 0 72.238-14.16 142.44-42.121 208.44-26.879 63.719-65.52 121.08-114.72 170.16z"/>
</svg>
