<?xml version="1.0" encoding="UTF-8"?>
<svg width="1200pt" height="1200pt" version="1.1" viewBox="0 0 1200 1200" xmlns="http://www.w3.org/2000/svg">
 <path d="m951 0h-302c-66.012 0.089844-129.29 26.352-175.97 73.027-46.676 46.68-72.938 109.96-73.027 175.97v51c0 11.91 6.3516 22.914 16.668 28.867 10.312 5.9531 23.02 5.9531 33.332 0 10.312-5.9531 16.668-16.957 16.668-28.867v-51c0-48.359 19.207-94.734 53.402-128.93 34.195-34.195 80.57-53.402 128.93-53.402h302c48.359 0 94.734 19.207 128.93 53.402 34.195 34.195 53.402 80.57 53.402 128.93v302c0 48.359-19.207 94.734-53.402 128.93-34.195 34.195-80.57 53.402-128.93 53.402h-51c-11.91 0-22.914 6.3555-28.867 16.668-5.9531 10.312-5.9531 23.02 0 33.332 5.9531 10.316 16.957 16.668 28.867 16.668h51c66.012-0.089844 129.29-26.352 175.97-73.027 46.676-46.68 72.938-109.96 73.027-175.97v-302c-0.089844-66.012-26.352-129.29-73.027-175.97-46.68-46.676-109.96-72.938-175.97-73.027z"/>
 <path d="m700 233.33c0 36.82-29.848 66.668-66.668 66.668-36.816 0-66.664-29.848-66.664-66.668 0-36.816 29.848-66.664 66.664-66.664 36.82 0 66.668 29.848 66.668 66.664"/>
 <path d="m1033.3 233.33c0 36.82-29.848 66.668-66.664 66.668-36.82 0-66.668-29.848-66.668-66.668 0-36.816 29.848-66.664 66.668-66.664 36.816 0 66.664 29.848 66.664 66.664"/>
 <path d="m1033.3 566.67c0 36.816-29.848 66.664-66.664 66.664-36.82 0-66.668-29.848-66.668-66.664 0-36.82 29.848-66.668 66.668-66.668 36.816 0 66.664 29.848 66.664 66.668"/>
 <path d="m866.67 400c0 36.82-29.848 66.668-66.668 66.668s-66.668-29.848-66.668-66.668 29.848-66.668 66.668-66.668 66.668 29.848 66.668 66.668"/>
 <path d="m249 1200h302c66.012-0.089844 129.29-26.352 175.97-73.027 46.676-46.68 72.938-109.96 73.027-175.97v-302c-0.089844-66.012-26.352-129.29-73.027-175.97-46.68-46.676-109.96-72.938-175.97-73.027h-302c-66.012 0.089844-129.29 26.352-175.97 73.027-46.676 46.68-72.938 109.96-73.027 175.97v302c0.089844 66.012 26.352 129.29 73.027 175.97 46.68 46.676 109.96 72.938 175.97 73.027zm-182.33-551c0-48.359 19.207-94.734 53.402-128.93 34.195-34.195 80.57-53.402 128.93-53.402h302c48.359 0 94.734 19.207 128.93 53.402 34.195 34.195 53.402 80.57 53.402 128.93v302c0 48.359-19.207 94.734-53.402 128.93-34.195 34.195-80.57 53.402-128.93 53.402h-302c-48.359 0-94.734-19.207-128.93-53.402-34.195-34.195-53.402-80.57-53.402-128.93z"/>
 <path d="m633.33 966.67c0 36.816-29.848 66.664-66.664 66.664-36.82 0-66.668-29.848-66.668-66.664 0-36.82 29.848-66.668 66.668-66.668 36.816 0 66.664 29.848 66.664 66.668"/>
 <path d="m300 633.33c0 36.82-29.848 66.668-66.668 66.668-36.816 0-66.664-29.848-66.664-66.668 0-36.816 29.848-66.664 66.664-66.664 36.82 0 66.668 29.848 66.668 66.664"/>
 <path d="m466.67 800c0 36.82-29.848 66.668-66.668 66.668s-66.668-29.848-66.668-66.668 29.848-66.668 66.668-66.668 66.668 29.848 66.668 66.668"/>
</svg>
